# xmcd
#
# Track frame offsets:
# 150
# 20771
# 39325
# 56727
# 71582
# 87899
# 104637
# 122774
# 139569
# 156714
# 178268
# 193799
# 211193
# 228166
# 245658
# 259690
# 275497
# 292190
# 312511
# 329760
#
# Disc length: 4630 seconds
#
#
# Revision: 0
# Processed by: cddbd v1.5.1PL2 Copyright (c) Steve Scherf et al.
# Submitted via: FreeRIP 2.12 
#
DISCID=3f121414
DTITLE=Various Artist - 
DYEAR=1900
DGENRE=
TTITLE0=Just Once
TTITLE1=Sometimes When We Touch
TTITLE2=The Gift
TTITLE3=Valentine
TTITLE4=Got To Believe In Magic
TTITLE5=Will of the Wind
TTITLE6=Can't We Try
TTITLE7=Can't Help Falling in Love
TTITLE8=Destiny
TTITLE9=Forever More
TTITLE10=The Past
TTITLE11=Nothing Can Stop Us Now
TTITLE12=For Just a Moment
TTITLE13=Only Reminds Me Of You
TTITLE14=In Your Eyes
TTITLE15=If You Walk Away
TTITLE16=Never Thought That I Could Love
TTITLE17=Heaven Knows
TTITLE18=Now and Forever
TTITLE19=Born For You
EXTD=
EXTT0=
EXTT1=
EXTT2=
EXTT3=
EXTT4=
EXTT5=
EXTT6=
EXTT7=
EXTT8=
EXTT9=
EXTT10=
EXTT11=
EXTT12=
EXTT13=
EXTT14=
EXTT15=
EXTT16=
EXTT17=
EXTT18=
EXTT19=
PLAYORDER=
